<svg version="1.1" id="Layer_1" xmlns="http://www.w3.org/2000/svg" xmlns:xlink="http://www.w3.org/1999/xlink" x="0px" y="0px"
	 width="100%" viewBox="0 0 391 186" enable-background="new 0 0 391 186" xml:space="preserve">
<path fill="#000000" opacity="1.000000" stroke="none" 
	d="
M290.000000,187.000000 
	C193.708084,187.000000 97.416153,187.000000 1.062116,187.000000 
	C1.062116,125.068115 1.062116,63.136150 1.062116,1.102094 
	C131.209183,1.102094 261.418457,1.102094 392.000000,1.102094 
	C392.000000,51.353615 392.000000,101.708153 391.745880,152.884369 
	C388.499390,152.486664 385.599335,150.871063 382.491577,150.146790 
	C378.488159,149.213791 372.593262,152.629700 372.019623,155.649902 
	C370.950989,161.276108 372.628845,163.986206 378.372101,165.988403 
	C380.522339,166.738022 382.736420,167.384918 384.748108,168.416580 
	C385.702576,168.906052 386.838226,170.199051 386.822906,171.110016 
	C386.806244,172.098618 385.535461,173.907059 384.830811,173.897797 
	C381.744263,173.857162 378.671539,173.209686 375.580078,172.938950 
	C373.747955,172.778488 371.890320,172.909576 370.044189,172.909576 
	C369.930908,173.765564 369.817627,174.621552 369.704346,175.477524 
	C373.120453,176.652176 376.531647,178.744141 379.953918,178.762405 
	C383.964233,178.783798 387.984222,177.000519 392.000000,176.000000 
	C392.000000,179.650055 392.000000,183.300095 392.000000,187.000000 
	C363.645782,187.000000 335.291565,187.000000 306.120972,186.781708 
	C307.521545,183.215195 311.248291,180.038620 311.652405,176.484283 
	C312.599548,168.153946 311.955322,159.642685 311.955322,150.065033 
	C309.410858,151.290085 307.711823,152.108078 305.730621,153.061935 
	C298.319580,147.891068 291.771973,149.874588 287.581512,154.010727 
	C283.119385,158.415054 282.686157,166.515884 286.352173,171.721970 
	C289.923218,176.793213 297.105499,177.381592 306.776276,173.320633 
	C307.518829,177.980911 305.009308,181.091843 301.104004,181.723038 
	C297.539124,182.299210 293.673035,180.873489 289.922546,180.504028 
	C288.319733,180.346146 286.673401,180.629807 285.046814,180.712845 
	C285.009125,181.226395 284.971436,181.739960 284.933746,182.253525 
	C286.622498,183.835678 288.311249,185.417847 290.000000,187.000000 
M90.682800,158.240265 
	C89.988800,157.526672 89.325409,156.780029 88.596001,156.104660 
	C82.207016,150.189178 75.349770,151.416733 71.070976,155.595230 
	C65.824593,160.718628 66.178711,168.726471 71.382858,173.836975 
	C75.316933,177.700256 82.023453,178.162292 87.221001,174.928177 
	C91.671822,172.158691 93.294548,165.271759 90.682800,158.240265 
M146.744492,150.988205 
	C140.387955,153.358231 137.911697,158.213806 138.000595,164.688690 
	C138.080170,170.484573 139.895660,175.352539 145.621613,177.809952 
	C151.062592,180.145035 156.174164,179.789703 159.943314,175.797836 
	C161.322617,176.944717 162.533951,177.951935 163.745270,178.959152 
	C164.497665,177.536560 165.877426,176.124832 165.902328,174.689621 
	C166.086700,164.064972 166.081070,153.434219 165.890335,142.809784 
	C165.868835,141.612869 164.323288,140.443298 163.484482,139.261047 
	C162.655869,140.456436 161.232162,141.595520 161.112701,142.858032 
	C160.783005,146.341721 160.998672,149.877029 160.998672,151.997116 
	C156.130920,151.590378 151.840546,151.231873 146.744492,150.988205 
M51.299030,153.746429 
	C49.362427,153.497803 47.427921,153.057831 45.488834,153.036621 
	C39.810768,152.974518 36.092979,156.113541 34.387718,162.180389 
	C33.171295,166.508102 35.739952,172.450546 39.911934,174.960327 
	C45.028111,178.038147 50.294380,177.830322 54.101372,174.400360 
	C61.385723,167.837418 60.611034,160.138428 51.299030,153.746429 
M101.077881,167.859283 
	C102.495712,171.682709 104.412239,174.910889 108.689919,176.318695 
	C113.572929,177.925705 117.860115,176.953903 121.594612,173.788651 
	C124.959587,170.936569 125.935112,164.758530 124.183418,160.511795 
	C122.263344,155.856873 119.371048,152.872787 113.810608,152.940979 
	C104.484344,153.055374 100.960396,156.757614 101.077881,167.859283 
M204.404480,152.962738 
	C200.709915,152.080780 196.947113,150.268066 193.336594,150.532745 
	C187.775986,150.940353 184.037216,155.025497 183.181183,160.386887 
	C182.180450,166.654663 182.406952,173.314255 188.799088,177.063477 
	C193.826767,180.012390 199.360733,180.183777 204.647430,177.082291 
	C208.377975,174.893707 208.406967,173.750290 204.798264,171.119186 
	C196.652496,176.966675 190.547440,175.566803 188.268921,166.976135 
	C192.644241,166.976135 196.926147,166.976318 201.208069,166.976089 
	C209.563019,166.975632 210.993790,164.772003 207.493027,157.068726 
	C206.899246,155.762100 205.819183,154.676468 204.404480,152.962738 
M348.665558,158.181458 
	C349.109619,163.914658 349.425079,169.662979 350.096832,175.369385 
	C350.246674,176.642441 351.648315,177.768143 352.473602,178.961700 
	C353.306763,177.776443 354.783203,176.630569 354.858612,175.398926 
	C355.143127,170.751022 355.279205,166.046906 354.852203,161.420944 
	C354.611420,158.812256 353.740784,155.852554 352.145264,153.857666 
	C347.987091,148.658661 342.307953,148.738068 335.971222,152.984238 
	C334.564362,152.195496 333.258698,150.911530 332.518677,151.181015 
	C331.470428,151.562698 330.168976,153.070480 330.138153,154.130768 
	C329.930115,161.289383 329.910828,168.460831 330.149780,175.617493 
	C330.187653,176.751953 331.836639,177.832626 332.740723,178.938171 
	C333.493958,177.847198 334.819977,176.795013 334.896912,175.658279 
	C335.166351,171.677490 334.354767,167.520599 335.214691,163.715530 
	C335.893494,160.711853 337.873047,157.393005 340.294708,155.565567 
	C342.664246,153.777451 346.046509,154.684982 348.665558,158.181458 
M227.972244,177.945099 
	C230.556030,178.298325 233.137787,178.926697 235.724060,178.945984 
	C240.709045,178.983139 244.623596,175.744873 244.917114,171.305801 
	C245.226212,166.630615 242.510513,164.214371 238.202759,162.908173 
	C234.934967,161.917358 231.839539,160.357971 228.256638,158.882416 
	C231.794327,153.482132 235.511642,154.946915 239.370514,155.997650 
	C240.714447,156.363617 242.379150,155.551620 243.897354,155.277603 
	C243.019043,154.095428 242.359116,152.583405 241.204330,151.818832 
	C239.911179,150.962662 238.186996,150.715179 236.620514,150.321823 
	C231.057693,148.925049 225.968506,151.511902 224.729126,156.782822 
	C223.441162,162.260452 225.695526,163.890640 231.410629,166.025177 
	C234.467850,167.167007 237.388290,168.675110 240.576935,170.110886 
	C237.253479,175.626907 233.671555,175.363419 229.521042,173.256271 
	C227.306534,172.132019 224.723831,170.531799 222.775970,174.496948 
	C224.332138,175.609009 225.772995,176.638672 227.972244,177.945099 
M262.275269,177.715363 
	C265.903229,180.531281 266.949860,178.478714 266.973724,175.087738 
	C267.027283,167.475174 266.946686,159.861588 266.895538,152.248596 
	C266.893585,151.958954 266.630463,151.671097 266.453949,151.310760 
	C265.101440,151.310760 263.726074,151.310760 262.041687,151.310760 
	C262.041687,160.023453 262.041687,168.438965 262.275269,177.715363 
M266.931671,141.962021 
	C265.640533,141.492538 264.349426,141.023056 263.058289,140.553589 
	C262.651550,142.251465 262.244812,143.949356 261.829102,145.684708 
	C265.127960,146.193558 267.533020,146.580124 266.931671,141.962021 
z"/>
<path fill="#9D9B9B" opacity="1.000000" stroke="none" 
	d="
M290.466858,187.000000 
	C288.311249,185.417847 286.622498,183.835678 284.933746,182.253525 
	C284.971436,181.739960 285.009125,181.226395 285.046814,180.712845 
	C286.673401,180.629807 288.319733,180.346146 289.922546,180.504028 
	C293.673035,180.873489 297.539124,182.299210 301.104004,181.723038 
	C305.009308,181.091843 307.518829,177.980911 306.776276,173.320633 
	C297.105499,177.381592 289.923218,176.793213 286.352173,171.721970 
	C282.686157,166.515884 283.119385,158.415054 287.581512,154.010727 
	C291.771973,149.874588 298.319580,147.891068 305.730621,153.061935 
	C307.711823,152.108078 309.410858,151.290085 311.955322,150.065033 
	C311.955322,159.642685 312.599548,168.153946 311.652405,176.484283 
	C311.248291,180.038620 307.521545,183.215195 305.652344,186.781708 
	C300.977905,187.000000 295.955811,187.000000 290.466858,187.000000 
M306.950378,165.025269 
	C306.965179,164.364822 307.009369,163.703537 306.990112,163.044083 
	C306.850037,158.248306 303.420502,156.138931 299.591675,155.145874 
	C295.446075,154.070679 292.050110,155.695221 289.991028,159.811386 
	C287.946411,163.898697 289.205109,167.058578 292.313934,169.813751 
	C296.934875,173.909027 302.908539,172.213318 306.950378,165.025269 
z"/>
<path fill="#9D9B9B" opacity="1.000000" stroke="none" 
	d="
M392.000000,175.545898 
	C387.984222,177.000519 383.964233,178.783798 379.953918,178.762405 
	C376.531647,178.744141 373.120453,176.652176 369.704346,175.477524 
	C369.817627,174.621552 369.930908,173.765564 370.044189,172.909576 
	C371.890320,172.909576 373.747955,172.778488 375.580078,172.938950 
	C378.671539,173.209686 381.744263,173.857162 384.830811,173.897797 
	C385.535461,173.907059 386.806244,172.098618 386.822906,171.110016 
	C386.838226,170.199051 385.702576,168.906052 384.748108,168.416580 
	C382.736420,167.384918 380.522339,166.738022 378.372101,165.988403 
	C372.628845,163.986206 370.950989,161.276108 372.019623,155.649902 
	C372.593262,152.629700 378.488159,149.213791 382.491577,150.146790 
	C385.599335,150.871063 388.499390,152.486664 391.745880,153.353027 
	C392.000000,153.750000 392.000000,154.500000 391.744415,155.271790 
	C389.595062,155.509857 387.695312,155.938339 385.809082,155.885483 
	C383.732086,155.827286 381.653168,155.044479 379.604095,155.148529 
	C378.699921,155.194458 377.500916,156.514694 377.134094,157.512955 
	C376.899292,158.152008 377.716766,159.735413 378.447235,160.080139 
	C382.903564,162.183212 387.470184,164.052643 392.000000,166.000000 
	C392.000000,169.030594 392.000000,172.061188 392.000000,175.545898 
z"/>
<path fill="#000000" opacity="1.000000" stroke="none" 
	d="
M392.000000,165.545898 
	C387.470184,164.052643 382.903564,162.183212 378.447235,160.080139 
	C377.716766,159.735413 376.899292,158.152008 377.134094,157.512955 
	C377.500916,156.514694 378.699921,155.194458 379.604095,155.148529 
	C381.653168,155.044479 383.732086,155.827286 385.809082,155.885483 
	C387.695312,155.938339 389.595062,155.509857 391.744415,155.646790 
	C392.000000,159.030594 392.000000,162.061188 392.000000,165.545898 
z"/>
<path fill="#9D9C9C" opacity="1.000000" stroke="none" 
	d="
M90.830956,158.609421 
	C93.294548,165.271759 91.671822,172.158691 87.221001,174.928177 
	C82.023453,178.162292 75.316933,177.700256 71.382858,173.836975 
	C66.178711,168.726471 65.824593,160.718628 71.070976,155.595230 
	C75.349770,151.416733 82.207016,150.189178 88.596001,156.104660 
	C89.325409,156.780029 89.988800,157.526672 90.830956,158.609421 
z"/>
<path fill="#9D9B9B" opacity="1.000000" stroke="none" 
	d="
M147.147339,150.930786 
	C151.840546,151.231873 156.130920,151.590378 160.998672,151.997116 
	C160.998672,149.877029 160.783005,146.341721 161.112701,142.858032 
	C161.232162,141.595520 162.655869,140.456436 163.484482,139.261047 
	C164.323288,140.443298 165.868835,141.612869 165.890335,142.809784 
	C166.081070,153.434219 166.086700,164.064972 165.902328,174.689621 
	C165.877426,176.124832 164.497665,177.536560 163.745270,178.959152 
	C162.533951,177.951935 161.322617,176.944717 159.943314,175.797836 
	C156.174164,179.789703 151.062592,180.145035 145.621613,177.809952 
	C139.895660,175.352539 138.080170,170.484573 138.000595,164.688690 
	C137.911697,158.213806 140.387955,153.358231 147.147339,150.930786 
M144.043030,159.919266 
	C143.742874,160.837357 143.341049,161.735748 143.158890,162.676682 
	C141.857971,169.396179 148.691681,176.108688 153.693085,174.196671 
	C157.990891,172.553635 160.493073,169.882980 160.980347,165.378616 
	C161.488617,160.680344 159.295822,157.419525 155.103180,155.618118 
	C150.581253,153.675217 147.201782,155.792664 144.043030,159.919266 
z"/>
<path fill="#AE1F23" opacity="1.000000" stroke="none" 
	d="
M51.675182,153.886566 
	C60.611034,160.138428 61.385723,167.837418 54.101372,174.400360 
	C50.294380,177.830322 45.028111,178.038147 39.911934,174.960327 
	C35.739952,172.450546 33.171295,166.508102 34.387718,162.180389 
	C36.092979,156.113541 39.810768,152.974518 45.488834,153.036621 
	C47.427921,153.057831 49.362427,153.497803 51.675182,153.886566 
z"/>
<path fill="#AE1F23" opacity="1.000000" stroke="none" 
	d="
M101.049377,167.440582 
	C100.960396,156.757614 104.484344,153.055374 113.810608,152.940979 
	C119.371048,152.872787 122.263344,155.856873 124.183418,160.511795 
	C125.935112,164.758530 124.959587,170.936569 121.594612,173.788651 
	C117.860115,176.953903 113.572929,177.925705 108.689919,176.318695 
	C104.412239,174.910889 102.495712,171.682709 101.049377,167.440582 
z"/>
<path fill="#9D9B9B" opacity="1.000000" stroke="none" 
	d="
M204.684128,153.225739 
	C205.819183,154.676468 206.899246,155.762100 207.493027,157.068726 
	C210.993790,164.772003 209.563019,166.975632 201.208069,166.976089 
	C196.926147,166.976318 192.644241,166.976135 188.268921,166.976135 
	C190.547440,175.566803 196.652496,176.966675 204.798264,171.119186 
	C208.406967,173.750290 208.377975,174.893707 204.647430,177.082291 
	C199.360733,180.183777 193.826767,180.012390 188.799088,177.063477 
	C182.406952,173.314255 182.180450,166.654663 183.181183,160.386887 
	C184.037216,155.025497 187.775986,150.940353 193.336594,150.532745 
	C196.947113,150.268066 200.709915,152.080780 204.684128,153.225739 
M188.056503,161.019104 
	C188.721466,161.675308 189.366150,162.874084 190.054688,162.899826 
	C194.602524,163.069824 199.159790,162.987686 204.334915,162.987686 
	C202.488922,158.964233 201.632843,155.210373 196.817932,154.963455 
	C192.712158,154.752899 189.966766,156.575455 188.056503,161.019104 
z"/>
<path fill="#9D9A9A" opacity="1.000000" stroke="none" 
	d="
M348.376160,157.888611 
	C346.046509,154.684982 342.664246,153.777451 340.294708,155.565567 
	C337.873047,157.393005 335.893494,160.711853 335.214691,163.715530 
	C334.354767,167.520599 335.166351,171.677490 334.896912,175.658279 
	C334.819977,176.795013 333.493958,177.847198 332.740723,178.938171 
	C331.836639,177.832626 330.187653,176.751953 330.149780,175.617493 
	C329.910828,168.460831 329.930115,161.289383 330.138153,154.130768 
	C330.168976,153.070480 331.470428,151.562698 332.518677,151.181015 
	C333.258698,150.911530 334.564362,152.195496 335.971222,152.984238 
	C342.307953,148.738068 347.987091,148.658661 352.145264,153.857666 
	C353.740784,155.852554 354.611420,158.812256 354.852203,161.420944 
	C355.279205,166.046906 355.143127,170.751022 354.858612,175.398926 
	C354.783203,176.630569 353.306763,177.776443 352.473602,178.961700 
	C351.648315,177.768143 350.246674,176.642441 350.096832,175.369385 
	C349.425079,169.662979 349.109619,163.914658 348.376160,157.888611 
z"/>
<path fill="#9D9A9A" opacity="1.000000" stroke="none" 
	d="
M227.593048,177.806717 
	C225.772995,176.638672 224.332138,175.609009 222.775970,174.496948 
	C224.723831,170.531799 227.306534,172.132019 229.521042,173.256271 
	C233.671555,175.363419 237.253479,175.626907 240.576935,170.110886 
	C237.388290,168.675110 234.467850,167.167007 231.410629,166.025177 
	C225.695526,163.890640 223.441162,162.260452 224.729126,156.782822 
	C225.968506,151.511902 231.057693,148.925049 236.620514,150.321823 
	C238.186996,150.715179 239.911179,150.962662 241.204330,151.818832 
	C242.359116,152.583405 243.019043,154.095428 243.897354,155.277603 
	C242.379150,155.551620 240.714447,156.363617 239.370514,155.997650 
	C235.511642,154.946915 231.794327,153.482132 228.256638,158.882416 
	C231.839539,160.357971 234.934967,161.917358 238.202759,162.908173 
	C242.510513,164.214371 245.226212,166.630615 244.917114,171.305801 
	C244.623596,175.744873 240.709045,178.983139 235.724060,178.945984 
	C233.137787,178.926697 230.556030,178.298325 227.593048,177.806717 
z"/>
<path fill="#9D9C9C" opacity="1.000000" stroke="none" 
	d="
M262.158478,177.284927 
	C262.041687,168.438965 262.041687,160.023453 262.041687,151.310760 
	C263.726074,151.310760 265.101440,151.310760 266.453949,151.310760 
	C266.630463,151.671097 266.893585,151.958954 266.895538,152.248596 
	C266.946686,159.861588 267.027283,167.475174 266.973724,175.087738 
	C266.949860,178.478714 265.903229,180.531281 262.158478,177.284927 
z"/>
<path fill="#9D9A9A" opacity="1.000000" stroke="none" 
	d="
M266.962646,142.381073 
	C267.533020,146.580124 265.127960,146.193558 261.829102,145.684708 
	C262.244812,143.949356 262.651550,142.251465 263.058289,140.553589 
	C264.349426,141.023056 265.640533,141.492538 266.962646,142.381073 
z"/>
<path fill="#000000" opacity="1.000000" stroke="none" 
	d="
M306.830383,165.404953 
	C302.908539,172.213318 296.934875,173.909027 292.313934,169.813751 
	C289.205109,167.058578 287.946411,163.898697 289.991028,159.811386 
	C292.050110,155.695221 295.446075,154.070679 299.591675,155.145874 
	C303.420502,156.138931 306.850037,158.248306 306.990112,163.044083 
	C307.009369,163.703537 306.965179,164.364822 306.830383,165.404953 
z"/>
<path fill="#000000" opacity="1.000000" stroke="none" 
	d="
M144.192474,159.551819 
	C147.201782,155.792664 150.581253,153.675217 155.103180,155.618118 
	C159.295822,157.419525 161.488617,160.680344 160.980347,165.378616 
	C160.493073,169.882980 157.990891,172.553635 153.693085,174.196671 
	C148.691681,176.108688 141.857971,169.396179 143.158890,162.676682 
	C143.341049,161.735748 143.742874,160.837357 144.192474,159.551819 
z"/>
<path fill="#000000" opacity="1.000000" stroke="none" 
	d="
M188.174652,160.620178 
	C189.966766,156.575455 192.712158,154.752899 196.817932,154.963455 
	C201.632843,155.210373 202.488922,158.964233 204.334915,162.987686 
	C199.159790,162.987686 194.602524,163.069824 190.054688,162.899826 
	C189.366150,162.874084 188.721466,161.675308 188.174652,160.620178 
z"/>
</svg>